HIERARCHY
ROOT Hips
{
  OFFSET 0 89.5177 0.535
  CHANNELS 6 Xposition Yposition Zposition Zrotation Xrotation Yrotation
  JOINT Spine
  {
    OFFSET 12.0259 -0.162855 1.69034e-005
    CHANNELS 3 Zrotation Xrotation Yrotation
    JOINT Spine1
    {
      OFFSET 15.3169 -0.0121922 0
      CHANNELS 3 Zrotation Xrotation Yrotation
      JOINT Spine2
      {
        OFFSET 15.3176 -0.0121908 0
        CHANNELS 3 Zrotation Xrotation Yrotation
        JOINT Neck
        {
          OFFSET 19.9142 1.56338 0
          CHANNELS 3 Zrotation Xrotation Yrotation
          JOINT Head
          {
            OFFSET 6.92651 0 0
            CHANNELS 3 Zrotation Xrotation Yrotation
            End Site
            {
              OFFSET 20.7666 0 0
            }
          }
          JOINT LeftShoulder
          {
            OFFSET -6.20654 0.708824 7.28219
            CHANNELS 3 Zrotation Xrotation Yrotation
            JOINT LeftArm
            {
              OFFSET 14.108 0 -1.52588e-005
              CHANNELS 3 Zrotation Xrotation Yrotation
              JOINT LeftForeArm
              {
                OFFSET 28.5802 0 0
                CHANNELS 3 Zrotation Xrotation Yrotation
                JOINT LeftHand
                {
                  OFFSET 27.092 0 0
                  CHANNELS 3 Zrotation Xrotation Yrotation
                  End Site
                  {
                    OFFSET 9.55928 -0.186424 0.145352
                  }
                }
              }
            }
          }
          JOINT RightShoulder
          {
            OFFSET -6.20654 0.708866 -7.28218
            CHANNELS 3 Zrotation Xrotation Yrotation
            JOINT RightArm
            {
              OFFSET 14.108 0 1.52588e-005
              CHANNELS 3 Zrotation Xrotation Yrotation
              JOINT RightForeArm
              {
                OFFSET 28.5802 0 0
                CHANNELS 3 Zrotation Xrotation Yrotation
                JOINT RightHand
                {
                  OFFSET 27.092 0 0
                  CHANNELS 3 Zrotation Xrotation Yrotation
                  End Site
                  {
                    OFFSET 9.55929 -0.186417 -0.145354
                  }
                }
              }
            }
          }
        }
      }
    }
  }
  JOINT LeftUpLeg
  {
    OFFSET 0.005 -0.535 8.837
    CHANNELS 3 Zrotation Xrotation Yrotation
    JOINT LeftLeg
    {
      OFFSET 39.9035 0 0
      CHANNELS 3 Zrotation Xrotation Yrotation
      JOINT LeftFoot
      {
        OFFSET 39.6689 0 0
        CHANNELS 3 Zrotation Xrotation Yrotation
        JOINT LeftToe
        {
          OFFSET 10.1624 13.6296 0
          CHANNELS 3 Zrotation Xrotation Yrotation
          End Site
          {
            OFFSET 8.38147 0 0
          }
        }
      }
    }
  }
  JOINT RightUpLeg
  {
    OFFSET 0.005 -0.535 -8.837
    CHANNELS 3 Zrotation Xrotation Yrotation
    JOINT RightLeg
    {
      OFFSET 39.9035 0 0
      CHANNELS 3 Zrotation Xrotation Yrotation
      JOINT RightFoot
      {
        OFFSET 39.6689 0 0
        CHANNELS 3 Zrotation Xrotation Yrotation
        JOINT RightToe
        {
          OFFSET 10.1624 13.6296 0
          CHANNELS 3 Zrotation Xrotation Yrotation
          End Site
          {
            OFFSET 8.38147 0 0
          }
        }
      }
    }
  }
}
MOTION
Frames:	17
Frame Time:	0.0333333
400.565 87.6032 -133.163 33.0956 -82.9521 -51.5977 2.29011 -1.04118 -1.35896 4.55607 -2.13507 -2.67578 4.55607 -2.13507 -2.67579 -8.30907e-012 -9.0191e-006 -5.27751e-005 11.3305 -1.16428 3.1147 -178.163 -11.9661 -81.2084 -3.46562 -51.5322 16.7647 -15.7072 6.36111e-015 -0 -59.3258 -27.8027 -48.3105 -179.803 9.26084 88.7751 44.3825 63.9436 -64.188 -8.98877 -6.36111e-015 -0 -48.461 24.9305 46.9082 5.62978 9.55689 176.78 -13.432 -3.18055e-015 -0 10.6684 6.128 -12.7693 90 -1.0312e-015 -1.59028e-015 10.0689 -7.45718 173.131 -3.8212 3.97569e-016 -6.4605e-016 8.24319 -3.72441 7.68302 90 -5.38893e-016 -3.97569e-016 
400.559 87.6085 -133.266 34.0436 -82.9565 -50.6544 2.27839 -1.04339 -1.35292 4.5327 -2.13898 -2.66383 4.5327 -2.13898 -2.66384 -8.30748e-012 -9.0191e-006 -5.27751e-005 11.4644 -1.12202 3.03551 -178.16 -11.9732 -81.1971 -3.43336 -51.5056 16.9018 -15.7405 6.36111e-015 1.59028e-015 -59.4543 -27.7791 -48.3946 -179.803 9.27713 88.7783 44.2225 63.9089 -64.0621 -9.08425 6.36111e-015 7.95139e-016 -48.5702 25.0024 47.0378 5.63971 9.54756 176.797 -13.3818 -3.18055e-015 -0 10.7309 6.18264 -12.8866 90 -9.06955e-016 -1.59028e-015 10.1607 -7.47999 173.15 -3.66309 0 9.93923e-017 8.14746 -3.7125 7.65781 90 -3.35449e-016 -3.97569e-016 
400.563 87.6119 -133.365 34.797 -82.9595 -49.9008 2.26763 -1.04225 -1.3519 4.51116 -2.14223 -2.65667 4.51116 -2.14223 -2.65668 -8.30828e-012 -9.0191e-006 -5.27751e-005 11.5746 -1.08753 3.02595 -178.151 -12.0156 -81.1845 -3.45264 -51.5041 16.9825 -15.7609 3.18055e-015 -0 -59.2911 -27.8177 -48.3117 -179.799 9.30689 88.7588 44.1621 63.9248 -64.0683 -9.13666 3.18055e-015 1.59028e-015 -48.5895 24.9086 47.0032 5.67403 9.42948 176.802 -13.2955 4.77083e-015 1.59028e-015 10.6963 6.16807 -12.8557 90 3.72721e-015 -1.59028e-015 10.2057 -7.67165 173.182 -3.5629 0 -4.47266e-016 8.15404 -3.73407 7.70295 90 9.10061e-016 1.98785e-016 
400.569 87.6102 -133.457 35.3393 -82.9744 -49.3512 2.26093 -1.03998 -1.35108 4.49809 -2.13155 -2.65267 4.49809 -2.13155 -2.65268 -8.30669e-012 -9.0191e-006 -5.27751e-005 11.5844 -1.13867 3.11417 -178.154 -11.9998 -81.19 -3.45834 -51.4203 17.0043 -15.7869 6.36111e-015 -4.77083e-015 -59.3674 -27.8082 -48.3162 -179.797 9.33111 88.7458 44.0477 63.8744 -64.0091 -9.19838 6.36111e-015 -0 -48.5258 25.0019 46.952 5.65888 9.43942 176.809 -13.3338 3.18055e-015 -3.97569e-016 10.7018 6.17681 -12.8745 90 -1.54058e-015 3.18055e-015 10.2431 -7.73161 173.196 -3.50741 0 9.93923e-017 8.15622 -3.72849 7.69146 90 -1.24551e-015 -0 
400.579 87.6041 -133.532 35.7774 -82.9899 -48.9056 2.25642 -1.03655 -1.35043 4.48923 -2.12452 -2.64909 4.48923 -2.12452 -2.6491 -8.30748e-012 -9.0191e-006 -5.27751e-005 11.5501 -1.12808 3.1825 -178.153 -11.9903 -81.1781 -3.50146 -51.3835 16.9485 -15.785 3.18055e-015 -3.18055e-015 -59.3537 -27.8159 -48.297 -179.794 9.31796 88.7298 44.2168 63.891 -64.169 -9.17804 0 1.59028e-015 -48.3741 25.0396 46.8415 5.65289 9.37767 176.814 -13.3358 1.59028e-015 3.97569e-016 10.7626 6.20198 -12.9288 90 -2.79541e-016 -4.77083e-015 10.2543 -7.74373 173.208 -3.50679 3.97569e-016 -1.98785e-016 8.17615 -3.69934 7.63037 90 1.26725e-015 -1.98785e-016 
400.578 87.5985 -133.602 35.9566 -83.0308 -48.7106 2.25321 -1.02598 -1.34989 4.4828 -2.10347 -2.65777 4.4828 -2.10347 -2.65778 -8.30748e-012 -9.0191e-006 -5.27751e-005 11.4438 -1.12639 3.22265 -178.151 -11.9955 -81.1726 -3.52602 -51.5094 16.9291 -15.7698 -6.36111e-015 1.59028e-015 -59.3302 -27.7889 -48.2699 -179.786 9.29857 88.6762 44.3636 63.9116 -64.2985 -9.12487 0 4.77083e-015 -48.4028 25.0785 46.9308 5.67401 9.4288 176.807 -13.3041 -1.59028e-015 -7.95139e-016 10.8024 6.22643 -12.9813 90 -1.24862e-015 1.59028e-015 10.2374 -7.76047 173.187 -3.53521 -3.97569e-016 4.96962e-016 8.23857 -3.7167 7.66664 90 -1.09953e-015 -1.98785e-016 
400.579 87.5935 -133.66 36.3161 -83.0676 -48.3371 2.2493 -1.01783 -1.34944 4.47399 -2.08729 -2.6693 4.47399 -2.08729 -2.66931 -8.30669e-012 -9.0191e-006 -5.27751e-005 11.3475 -1.10133 3.31671 -178.148 -12.0194 -81.1734 -3.59458 -51.5529 16.8917 -15.7733 -3.18055e-015 -3.18055e-015 -59.3231 -27.7954 -48.227 -179.779 9.2796 88.6328 44.5391 63.8556 -64.4341 -9.09873 3.18055e-015 1.59028e-015 -48.4148 25.0448 46.8962 5.69234 9.48926 176.796 -13.253 -3.18055e-015 -0 10.7915 6.25263 -13.0375 90 -2.98177e-016 -0 10.2161 -7.79352 173.168 -3.54698 -7.95139e-016 4.96962e-016 8.31149 -3.74252 7.72072 90 1.18028e-016 -3.97569e-016 
400.565 87.5859 -133.715 36.8065 -83.09 -47.8272 2.24697 -1.0138 -1.34902 4.47008 -2.07928 -2.67503 4.47008 -2.07928 -2.67503 -8.30748e-012 -9.0191e-006 -5.27751e-005 11.2249 -1.09226 3.36383 -178.15 -11.991 -81.1648 -3.6165 -51.4815 16.8538 -15.8066 -3.18055e-015 -1.59028e-015 -59.3024 -27.815 -48.2234 -179.779 9.25594 88.6269 44.8085 63.7739 -64.6455 -9.10541 9.54166e-015 -0 -48.3947 25.0665 46.9229 5.71878 9.42596 176.769 -13.1695 -1.59028e-015 -7.95139e-016 10.8438 6.27628 -13.0885 90 4.78326e-016 -0 10.1799 -7.86963 173.135 -3.57993 -3.97569e-016 -0 8.39876 -3.77981 7.79864 90 -2.14625e-015 -1.98785e-016 
400.549 87.5792 -133.762 37.5973 -83.0667 -47.0158 2.25511 -1.01985 -1.34861 4.48621 -2.09156 -2.6748 4.48621 -2.09157 -2.67481 -8.30589e-012 -9.0191e-006 -5.27751e-005 11.0813 -1.11256 3.36666 -178.151 -11.9848 -81.1612 -3.6188 -51.4648 16.8972 -15.8454 6.36111e-015 -4.77083e-015 -59.3645 -27.7889 -48.3016 -179.772 9.27905 88.5885 44.6999 63.6968 -64.542 -9.07962 0 -0 -48.3916 25.1592 47.0431 5.70279 9.42805 176.745 -13.1796 -4.77083e-015 -0 10.8766 6.29597 -13.1311 90 1.92573e-016 -1.59028e-015 10.1769 -7.9452 173.119 -3.57817 7.95139e-016 -0 8.42515 -3.76424 7.76604 90 -2.36057e-016 -1.98785e-016 
400.528 87.576 -133.803 38.2279 -83.0419 -46.3581 2.26724 -1.02638 -1.34816 4.51058 -2.10472 -2.66488 4.51058 -2.10472 -2.66489 -8.30589e-012 -9.0191e-006 -5.27751e-005 10.9472 -1.1115 3.24275 -178.14 -11.9737 -81.1025 -3.64332 -51.3828 16.9019 -15.8622 -6.36111e-015 -3.18055e-015 -59.3106 -27.8224 -48.2628 -179.771 9.2444 88.5746 44.932 63.694 -64.6849 -9.03848 -3.18055e-015 3.18055e-015 -48.4305 25.14 47.0303 5.73547 9.33958 176.712 -13.0991 -1.59028e-015 3.97569e-016 10.894 6.3169 -13.1763 90 1.68035e-015 3.18055e-015 10.1895 -7.97794 173.094 -3.56663 3.97569e-016 5.96354e-016 8.41842 -3.73696 7.70863 90 -9.93923e-016 -3.97569e-016 
400.504 87.5728 -133.841 38.8582 -83.0405 -45.716 2.26839 -1.0294 -1.34761 4.51309 -2.11058 -2.65394 4.51309 -2.11058 -2.65395 -8.30828e-012 -9.0191e-006 -5.27751e-005 10.9409 -1.09976 3.20648 -178.142 -11.9576 -81.1014 -3.61496 -51.2989 16.9841 -15.8246 0 -1.59028e-015 -59.3447 -27.7959 -48.2696 -179.772 9.22525 88.5752 45.2375 63.6873 -64.9157 -9.00241 0 -7.95139e-016 -48.5401 25.0174 47.0337 5.73331 9.28409 176.685 -13.0477 6.36111e-015 3.97569e-016 10.9 6.31127 -13.1645 90 2.85132e-015 1.59028e-015 10.1834 -8.01484 173.075 -3.54235 0 5.96354e-016 8.39916 -3.7257 7.68488 90 4.50372e-016 -1.98785e-016 
400.48 87.5667 -133.879 39.2665 -83.0571 -45.2894 2.269 -1.02448 -1.3469 4.51349 -2.10064 -2.65277 4.51348 -2.10064 -2.65278 -8.30907e-012 -9.0191e-006 -5.27751e-005 11.0538 -1.08965 3.16393 -178.138 -11.957 -81.0795 -3.67029 -51.3318 17.0067 -15.7672 6.36111e-015 -1.59028e-015 -59.2989 -27.8543 -48.2718 -179.773 9.26321 88.5892 45.4668 63.651 -65.162 -9.01476 -3.18055e-015 3.18055e-015 -48.4432 25.1118 46.9951 5.72803 9.28433 176.655 -13.0317 -3.18055e-015 -3.97569e-016 10.9267 6.32372 -13.1914 90 -3.42593e-015 -0 10.1556 -8.07232 173.046 -3.54959 -1.19271e-015 -2.98177e-016 8.43883 -3.72941 7.69263 90 -2.02512e-015 3.97569e-016 
400.461 87.5612 -133.923 39.3249 -83.1121 -45.2117 2.26974 -1.01539 -1.33989 4.51457 -2.08222 -2.63909 4.51457 -2.08222 -2.63909 -8.30748e-012 -9.0191e-006 -5.27751e-005 11.1388 -1.03418 3.10649 -178.129 -11.9422 -81.0277 -3.62975 -51.4753 17.0648 -15.7489 -3.18055e-015 -6.36111e-015 -59.2739 -27.872 -48.2117 -179.78 9.23088 88.6289 45.6845 63.6602 -65.3432 -9.01413 0 5.56597e-015 -48.42 25.0113 46.922 5.74611 9.33447 176.63 -12.9933 0 -7.95139e-016 10.9891 6.37039 -13.2919 90 -2.26739e-016 -3.18055e-015 10.1363 -8.00893 173.017 -3.55818 3.97569e-016 9.93923e-017 8.43453 -3.69858 7.62807 90 -1.20824e-015 3.97569e-016 
400.441 87.5541 -133.975 39.7736 -83.1231 -44.7507 2.26999 -1.02512 -1.33384 4.51377 -2.10144 -2.6266 4.51377 -2.10144 -2.62661 -8.30589e-012 -9.0191e-006 -5.27751e-005 11.1682 -0.953296 3.1209 -178.119 -12.0209 -81.0406 -3.60396 -51.5445 17.1843 -15.7734 -9.54166e-015 -0 -59.3432 -27.7936 -48.3343 -179.783 9.24958 88.6508 45.6138 63.646 -65.3456 -9.04579 -3.18055e-015 -0 -48.4173 25.0237 46.9161 5.73809 9.33436 176.601 -13.0086 -1.59028e-015 -7.95139e-016 10.9948 6.36142 -13.2728 90 -1.31074e-015 -0 10.1146 -8.04121 172.997 -3.58719 0 2.98177e-016 8.48519 -3.69278 7.61616 90 -2.79541e-016 -0 
400.422 87.5513 -134.028 39.9423 -83.1356 -44.5715 2.27041 -1.02671 -1.3278 4.51368 -2.10443 -2.61443 4.51368 -2.10443 -2.61444 -8.30589e-012 -9.0191e-006 -5.27751e-005 11.2054 -0.898671 3.10759 -178.111 -12.1156 -81.07 -3.60271 -51.6076 17.3234 -15.7944 6.36111e-015 1.59028e-015 -59.4059 -27.8108 -48.4255 -179.784 9.26165 88.6563 45.5942 63.6681 -65.3727 -9.06774 3.18055e-015 1.59028e-015 -48.4231 25.0331 46.9131 5.78202 9.25276 176.574 -12.935 1.59028e-015 -3.97569e-016 10.9828 6.3335 -13.213 90 2.18353e-015 3.18055e-015 10.1389 -8.01809 172.989 -3.56511 3.97569e-016 3.97569e-016 8.44095 -3.64586 7.51786 90 1.06536e-015 -0 
400.415 87.549 -134.084 40.1562 -83.1381 -44.3456 2.27114 -1.01971 -1.31704 4.51475 -2.09001 -2.59316 4.51475 -2.09001 -2.59317 -8.30828e-012 -9.0191e-006 -5.27751e-005 11.2774 -0.897637 3.14013 -178.107 -12.1559 -81.0779 -3.71431 -51.5589 17.3422 -15.7913 -6.36111e-015 3.18055e-015 -59.3756 -27.8517 -48.4333 -179.794 9.26971 88.72 45.7701 63.6562 -65.5202 -9.09043 0 1.59028e-015 -48.4898 24.9865 46.9927 5.79448 9.23977 176.567 -12.9465 3.18055e-015 7.95139e-016 11.0146 6.35235 -13.2537 90 6.24308e-016 1.59028e-015 10.1694 -8.02186 172.984 -3.5482 0 7.95139e-016 8.45052 -3.62769 7.47985 90 -1.63687e-015 1.98785e-016 
400.41 87.5432 -134.141 40.1082 -83.1635 -44.3894 2.2719 -1.00184 -1.32229 4.51568 -2.0545 -2.60435 4.51568 -2.05451 -2.60436 -8.30987e-012 -9.0191e-006 -5.27751e-005 11.3361 -0.867674 3.27693 -178.123 -12.167 -81.1612 -3.83393 -51.5716 17.299 -15.8143 -6.36111e-015 1.59028e-015 -59.4359 -27.9121 -48.5002 -179.786 9.28182 88.6743 45.9504 63.7005 -65.6784 -9.04724 0 -1.59028e-015 -48.451 24.997 46.9255 5.82889 9.22102 176.551 -12.938 0 -0 11.0519 6.33611 -13.219 90 -2.54693e-015 1.59028e-015 10.2042 -7.99577 172.981 -3.52766 0 -7.45443e-016 8.44773 -3.62337 7.47096 90 -6.55368e-016 -0 
